<svg width="32" height="35" viewBox="0 0 32 35" fill="none" xmlns="http://www.w3.org/2000/svg">
<g id="Arrows-chevron/Arrow-Left" filter="url(#filter0_d_788_550)">
<path id="Icon" d="M14.5997 26.0268C14.7907 26.2071 15.0436 26.3073 15.3063 26.3068C15.5681 26.309 15.819 26.2028 15.9997 26.0134C16.1903 25.8277 16.2978 25.5729 16.2978 25.3068C16.2978 25.0406 16.1903 24.7858 15.9997 24.6001L8.39958 17H26.0266C26.5789 17 27.0266 16.5523 27.0266 16C27.0266 15.4477 26.5789 15 26.0266 15H8.39666L16.013 7.36008C16.2036 7.17437 16.3111 6.91953 16.3111 6.65342C16.3111 6.3873 16.2036 6.13247 16.013 5.94675C15.6226 5.55681 14.9901 5.55681 14.5997 5.94675L5.26633 15.2801C4.87639 15.6705 4.87639 16.303 5.26633 16.6934L14.5997 26.0268Z" fill="black"/>
</g>
<defs>
<filter id="filter0_d_788_550" x="-4" y="0" width="40" height="40" filterUnits="userSpaceOnUse" color-interpolation-filters="sRGB">
<feFlood flood-opacity="0" result="BackgroundImageFix"/>
<feColorMatrix in="SourceAlpha" type="matrix" values="0 0 0 0 0 0 0 0 0 0 0 0 0 0 0 0 0 0 127 0" result="hardAlpha"/>
<feOffset dy="4"/>
<feGaussianBlur stdDeviation="2"/>
<feComposite in2="hardAlpha" operator="out"/>
<feColorMatrix type="matrix" values="0 0 0 0 0 0 0 0 0 0 0 0 0 0 0 0 0 0 0.25 0"/>
<feBlend mode="normal" in2="BackgroundImageFix" result="effect1_dropShadow_788_550"/>
<feBlend mode="normal" in="SourceGraphic" in2="effect1_dropShadow_788_550" result="shape"/>
</filter>
</defs>
</svg>
