<svg width="28" height="20" viewBox="0 0 28 20" fill="none" xmlns="http://www.w3.org/2000/svg">
<path fill-rule="evenodd" clip-rule="evenodd" d="M5.99984 0.666656H21.9998C24.9454 0.666656 27.3332 3.05447 27.3332 5.99999V14C27.3332 16.9455 24.9454 19.3333 21.9998 19.3333H5.99984C3.05432 19.3333 0.666504 16.9455 0.666504 14V5.99999C0.666504 3.05447 3.05432 0.666656 5.99984 0.666656ZM5.01317 13.6667H22.9865C23.5388 13.6667 23.9865 13.2189 23.9865 12.6667C23.9865 12.1144 23.5388 11.6667 22.9865 11.6667H5.01317C4.46088 11.6667 4.01317 12.1144 4.01317 12.6667C4.01317 13.2189 4.46088 13.6667 5.01317 13.6667Z" fill="#DF605B"/>
</svg>
