<svg width="29" height="22" viewBox="0 0 29 22" fill="none" xmlns="http://www.w3.org/2000/svg">
<path fill-rule="evenodd" clip-rule="evenodd" d="M18.0626 17.7429C18.5338 16.5792 19.6612 15.8155 20.9166 15.8097V15.7539C21.7397 15.7502 22.5304 16.0746 23.1138 16.6553C23.6971 17.2361 24.0251 18.0253 24.0251 18.8484C24.0477 20.1036 23.3097 21.2481 22.1571 21.7455C21.0044 22.2429 19.6655 21.9946 18.7678 21.117C17.8701 20.2394 17.5915 18.9065 18.0626 17.7429ZM21.9202 18.9042C21.9202 18.3499 21.4709 17.9006 20.9166 17.9006C20.3654 17.9081 19.9204 18.353 19.9129 18.9042C19.9129 19.4585 20.3623 19.9078 20.9166 19.9078C21.4709 19.9078 21.9202 19.4585 21.9202 18.9042Z" fill="#DF605B"/>
<path fill-rule="evenodd" clip-rule="evenodd" d="M3.57596 18.8484C3.57596 17.1394 4.96144 15.7539 6.67051 15.7539C7.49237 15.7502 8.28165 16.075 8.8628 16.6562C9.44395 17.2373 9.76878 18.0266 9.76506 18.8484C9.76506 20.5575 8.37958 21.943 6.67051 21.943C4.96144 21.943 3.57596 20.5575 3.57596 18.8484ZM7.60188 18.5341C7.45037 18.1522 7.08138 17.9012 6.67051 17.9006V17.8448C6.11622 17.8448 5.66687 18.2942 5.66687 18.8484C5.64405 19.2587 5.87358 19.6414 6.24622 19.8145C6.61887 19.9875 7.05937 19.916 7.35808 19.6339C7.65679 19.3517 7.75338 18.9161 7.60188 18.5341Z" fill="#DF605B"/>
<path fill-rule="evenodd" clip-rule="evenodd" d="M27.8445 6.94424L26.3808 5.4806C25.8776 4.97373 25.199 4.67935 24.4851 4.65818H17.822V2.80424C17.822 1.26453 16.5739 0.0163574 15.0341 0.0163574H3.57596C2.03626 0.0163574 0.788086 1.26453 0.788086 2.80424V5.77333H11.9396C12.2243 5.76961 12.4988 5.87914 12.7027 6.07782C12.9066 6.2765 13.0232 6.54805 13.0269 6.83272C13.0196 7.11372 12.9009 7.3803 12.697 7.57377C12.4931 7.76724 12.2206 7.87173 11.9396 7.86424H0.788086V19.2109H2.54445C2.53719 19.1088 2.53719 19.0063 2.54445 18.9042C2.30306 17.2864 3.02712 15.6763 4.39764 14.7834C5.76816 13.8904 7.53351 13.8785 8.91593 14.7529C10.2984 15.6274 11.044 17.2275 10.8245 18.8485C10.8317 18.9506 10.8317 19.0531 10.8245 19.1551H16.8045C16.7972 19.0531 16.7972 18.9506 16.8045 18.8485C16.8045 17.3545 17.6015 15.9739 18.8954 15.2269C20.1892 14.4799 21.7833 14.4799 23.0772 15.2269C24.371 15.9739 25.1681 17.3545 25.1681 18.8485C25.1753 18.9506 25.1753 19.0531 25.1681 19.1551H25.879C27.4187 19.1551 28.6669 17.907 28.6669 16.3673V8.90969C28.6638 8.17149 28.368 7.46466 27.8445 6.94424ZM11.9396 12.0461H4.9699C4.39792 12.0461 3.93208 11.5865 3.92445 11.0145C3.9244 10.4349 4.39027 9.96277 4.9699 9.95515H11.9396C12.5192 9.96277 12.9851 10.4349 12.9851 11.0145C12.9774 11.5865 12.5116 12.0461 11.9396 12.0461ZM19.5087 10.4848H26.4784C27.0558 10.4848 27.5238 10.0168 27.5238 9.43939C27.5238 8.862 27.0558 8.39393 26.4784 8.39393H19.5087C18.9313 8.39393 18.4632 8.862 18.4632 9.43939C18.4632 10.0168 18.9313 10.4848 19.5087 10.4848Z" fill="#DF605B"/>
</svg>
