<svg width="27" height="26" viewBox="0 0 27 26" fill="none" xmlns="http://www.w3.org/2000/svg">
<path fill-rule="evenodd" clip-rule="evenodd" d="M5.99569 0H21.0043C24.4233 0.114978 27.1031 2.91819 26.997 6.26857V14.8912C27.0478 16.5092 26.4383 18.0804 25.3034 19.257C24.1686 20.4335 22.6019 21.1183 20.9503 21.1597H8.10122C7.21203 21.1777 6.36878 21.5503 5.76625 22.1913L2.56747 25.5371C2.29646 25.8267 1.91567 25.9942 1.51471 26C1.10059 25.9897 0.707876 25.8176 0.423964 25.522C0.140052 25.2264 -0.0114966 24.8319 0.0030465 24.4262V6.26857C-0.103083 2.91819 2.57674 0.114978 5.99569 0ZM21.0043 19.176C23.3055 19.0619 25.0794 17.1464 24.9724 14.8912V6.26857C25.0794 4.01336 23.3055 2.09781 21.0043 1.98372H5.99569C3.69454 2.09781 1.92059 4.01336 2.02759 6.26857V23.1963L4.22759 20.8423C5.23368 19.7937 6.63242 19.192 8.10122 19.176H21.0043Z" fill="#BB8BEB"/>
<path d="M8.43864 8.92675H15.1871C15.7462 8.92675 16.1994 8.48268 16.1994 7.93489C16.1994 7.3871 15.7462 6.94303 15.1871 6.94303H8.43864C7.87958 6.94303 7.42637 7.3871 7.42637 7.93489C7.42637 8.48268 7.87958 8.92675 8.43864 8.92675Z" fill="#BB8BEB"/>
<path d="M18.5614 12.233H8.43864C7.87958 12.233 7.42637 12.677 7.42637 13.2248C7.42637 13.7726 7.87958 14.2167 8.43864 14.2167H18.5614C19.1204 14.2167 19.5736 13.7726 19.5736 13.2248C19.5736 12.677 19.1204 12.233 18.5614 12.233Z" fill="#BB8BEB"/>
</svg>
