<svg width="27" height="26" viewBox="0 0 27 26" fill="none" xmlns="http://www.w3.org/2000/svg">
<path fill-rule="evenodd" clip-rule="evenodd" d="M21.0032 0H5.99487C2.59223 0.115317 -0.0810865 2.90087 0.00235423 6.24412V24.4462C-0.0324877 25.0578 0.322016 25.6266 0.892373 25.8743C1.46273 26.122 2.12964 25.9967 2.56672 25.5598L5.76543 22.2057C6.37487 21.5779 7.2172 21.2192 8.10035 21.2114H20.9492C22.608 21.1701 24.181 20.4781 25.317 19.29C26.453 18.1019 27.0575 16.5166 26.9957 14.8878V6.24412C27.0791 2.90087 24.4058 0.115317 21.0032 0ZM8.43776 6.92023H15.1861C15.7451 6.92023 16.1983 7.36539 16.1983 7.91452C16.1983 8.46365 15.7451 8.90881 15.1861 8.90881H8.43776C7.87871 8.90881 7.42551 8.46365 7.42551 7.91452C7.42551 7.36539 7.87871 6.92023 8.43776 6.92023ZM8.43776 14.2117H18.5603C19.1193 14.2117 19.5725 13.7665 19.5725 13.2174C19.5725 12.6683 19.1193 12.2231 18.5603 12.2231H8.43776C7.87871 12.2231 7.42551 12.6683 7.42551 13.2174C7.42551 13.7665 7.87871 14.2117 8.43776 14.2117Z" fill="#BB8BEB"/>
</svg>
