<svg width="28" height="24" viewBox="0 0 28 24" fill="none" xmlns="http://www.w3.org/2000/svg">
<path d="M14.1334 23.7333C13.4667 23.7333 12.6667 23.4667 12.1334 22.9333C3.46675 15.3333 3.33341 15.2 3.33341 15.0667L3.20008 14.9333C1.60008 13.3333 0.666748 11.0667 0.666748 8.8V8.53333C0.800081 3.73333 4.66675 0 9.46675 0C10.9334 0 12.9334 0.8 14.1334 2.4C15.3334 0.8 17.4667 0 18.9334 0C23.7334 0 27.4667 3.73333 27.7334 8.53333V8.8C27.7334 11.2 26.8001 13.3333 25.2001 15.0667L25.0667 15.2C24.9334 15.3333 23.8667 16.2667 16.2667 23.0667C15.6001 23.4667 14.9334 23.7333 14.1334 23.7333ZM5.33341 14.6667C5.86675 15.2 8.53341 17.0667 13.4667 21.3333C13.8667 21.7333 14.4001 21.7333 14.8001 21.3333C19.8667 16.8 22.8001 14.2667 23.4667 13.7333L23.6001 13.6C24.9334 12.2667 25.6001 10.5333 25.6001 8.8V8.53333C25.4667 4.8 22.5334 2 18.8001 2C17.8667 2 16.0001 2.66667 15.3334 4.13333C15.0667 4.66667 14.5334 4.93333 14.0001 4.93333C13.4667 4.93333 12.9334 4.66667 12.6667 4.13333C12.0001 2.8 10.2667 2 9.20008 2C5.60008 2 2.53341 4.93333 2.40008 8.53333V8.93333C2.40008 10.6667 3.20008 12.4 4.40008 13.6L5.33341 14.6667Z" fill="#DF605B"/>
</svg>
