<svg width="27" height="24" viewBox="0 0 27 24" fill="none" xmlns="http://www.w3.org/2000/svg">
<path d="M13.4335 24C12.7685 24 11.9704 23.7303 11.4384 23.191C2.7931 15.5056 2.6601 15.3708 2.6601 15.236L2.52709 15.1011C0.931032 13.4831 0 11.191 0 8.89888V8.62921C0.133005 3.77528 3.99015 0 8.77833 0C10.2414 0 12.2365 0.808989 13.4335 2.42697C14.6305 0.808989 16.7586 0 18.2217 0C23.0099 0 26.734 3.77528 27 8.62921V8.89888C27 11.3258 26.069 13.4831 24.4729 15.236L24.3399 15.3708C24.2069 15.5056 23.1429 16.4494 15.5616 23.3258C14.8966 23.7303 14.2315 24 13.4335 24ZM4.65517 14.8315C5.18719 15.3708 7.84729 17.2584 12.7685 21.573C13.1675 21.9775 13.6995 21.9775 14.0985 21.573C19.1527 16.9888 22.0788 14.427 22.7438 13.8876L22.8768 13.7528C24.2069 12.4045 24.8719 10.6517 24.8719 8.89888V8.62921C24.7389 4.85393 21.8128 2.02247 18.0887 2.02247C17.1576 2.02247 15.2956 2.69663 14.6305 4.17978C14.3645 4.7191 13.8325 4.98876 13.3005 4.98876C12.7685 4.98876 12.2365 4.7191 11.9704 4.17978C11.3054 2.83146 9.57635 2.02247 8.51231 2.02247C4.92118 2.02247 1.86207 4.98876 1.72906 8.62921V9.03371C1.72906 10.7865 2.52709 12.5393 3.72414 13.7528L4.65517 14.8315Z" fill="#BB8BEB"/>
</svg>
