<svg width="27" height="24" viewBox="0 0 27 24" fill="none" xmlns="http://www.w3.org/2000/svg">
<path d="M27 8.37768C26.8657 3.70815 23.2388 0 18.6716 0C17.194 0 14.9104 1.09871 13.9701 2.88412C13.8358 3.29614 13.2985 3.29614 13.1642 2.88412C12.0896 1.23605 9.9403 0.137339 8.32836 0.137339C3.89552 0.137339 0.134328 3.84549 0 8.37768V8.65236C0 10.9871 0.940298 13.1845 2.55224 14.8326C2.55224 14.8326 2.55224 14.8326 2.55224 14.97C2.68657 15.1073 9.13433 20.8755 12.0896 23.485C12.8955 24.1717 14.1045 24.1717 14.9104 23.485C17.8657 20.8755 24.1791 15.1073 24.4478 14.97C24.4478 14.97 24.4478 14.97 24.4478 14.8326C26.0597 13.3219 27 11.1245 27 8.65236V8.37768Z" fill="#BB8BEB"/>
</svg>
