<svg width="28" height="24" viewBox="0 0 28 24" fill="none" xmlns="http://www.w3.org/2000/svg">
<path d="M27.4667 8.13333C27.3334 3.6 23.7334 0 19.2001 0C17.7334 0 15.4667 1.06667 14.5334 2.8C14.4001 3.2 13.8667 3.2 13.7334 2.8C12.6667 1.2 10.5334 0.133333 8.93341 0.133333C4.53341 0.133333 0.800081 3.73333 0.666748 8.13333V8.4C0.666748 10.6667 1.60008 12.8 3.20008 14.4C3.20008 14.4 3.20008 14.4 3.20008 14.5333C3.33341 14.6667 9.73342 20.2667 12.6667 22.8C13.4667 23.4667 14.6667 23.4667 15.4667 22.8C18.4001 20.2667 24.6667 14.6667 24.9334 14.5333C24.9334 14.5333 24.9334 14.5333 24.9334 14.4C26.5334 12.9333 27.4667 10.8 27.4667 8.4V8.13333Z" fill="#DF605B"/>
</svg>
