<svg width="23" height="22" viewBox="0 0 23 22" fill="none" xmlns="http://www.w3.org/2000/svg">
<path d="M8.88756 2.26314H1.01085C0.467072 2.26314 0.0262566 2.70748 0.0262566 3.25559C0.0262566 3.80371 0.467072 4.24804 1.01085 4.24804H8.88756C9.43133 4.24804 9.87215 3.80371 9.87215 3.25559C9.87215 2.70748 9.43133 2.26314 8.88756 2.26314Z" fill="black"/>
<path fill-rule="evenodd" clip-rule="evenodd" d="M3.51827 12.0421H1.01085C0.467072 12.0421 0.0262566 11.5978 0.0262566 11.0496C0.0262566 10.5015 0.467072 10.0572 1.01085 10.0572H3.51827C3.99721 8.70539 5.37171 7.89707 6.77486 8.14205C8.17802 8.38703 9.20275 9.61423 9.20275 11.0496C9.20275 12.4851 8.17802 13.7123 6.77486 13.9572C5.37171 14.2022 3.99721 13.3939 3.51827 12.0421ZM6.26199 12.0156C6.79126 12.0156 7.22032 11.5831 7.22032 11.0496C7.22032 10.5161 6.79126 10.0837 6.26199 10.0837C6.00782 10.0837 5.76407 10.1854 5.58434 10.3666C5.40462 10.5477 5.30366 10.7935 5.30366 11.0496C5.30366 11.5831 5.73272 12.0156 6.26199 12.0156Z" fill="black"/>
<path fill-rule="evenodd" clip-rule="evenodd" d="M16.3967 4.19511C15.9483 5.26284 14.9211 5.96691 13.7711 5.99476V5.90213C12.2488 5.90801 10.976 4.73683 10.8435 3.20816C10.711 1.67948 11.7629 0.303538 13.2632 0.0431615C14.7634 -0.217215 16.2113 0.724883 16.5936 2.21021C16.6502 2.20272 16.7076 2.20272 16.7643 2.21021H21.9498C22.4935 2.21021 22.9344 2.65454 22.9344 3.20266C22.9344 3.75078 22.4935 4.19511 21.9498 4.19511H16.6986C16.5984 4.20771 16.4969 4.20771 16.3967 4.19511ZM14.7343 2.94722C14.711 2.42898 14.2858 2.0218 13.7711 2.02495V2.07788C13.5074 2.0809 13.2567 2.19329 13.0778 2.3886C12.8989 2.5839 12.8078 2.84486 12.8259 3.11003C12.8894 3.62485 13.3449 3.99722 13.8577 3.95347C14.3706 3.90971 14.7576 3.46547 14.7343 2.94722Z" fill="black"/>
<path d="M8.88755 18.2747H1.01084C0.45257 18.2747 0 18.7309 0 19.2936C0 19.8563 0.45257 20.3125 1.01084 20.3125H8.88755C9.43133 20.3125 9.87214 19.8682 9.87214 19.3201C9.87214 18.772 9.43133 18.3276 8.88755 18.3276V18.2747Z" fill="black"/>
<path fill-rule="evenodd" clip-rule="evenodd" d="M16.9349 18.2747H22.0154V18.3276C22.5592 18.3276 23 18.772 23 19.3201C23 19.8682 22.5592 20.3125 22.0154 20.3125H16.7643C16.1637 21.5993 14.735 22.2677 13.3723 21.8994C12.0097 21.5311 11.1044 20.2319 11.2231 18.8149C11.3418 17.3979 12.4503 16.27 13.8549 16.1371C15.2595 16.0043 16.5568 16.9047 16.9349 18.2747ZM13.244 19.4344C13.3965 19.7949 13.7499 20.0268 14.1387 20.0214C14.6628 20.0142 15.084 19.5838 15.0839 19.0554C15.0839 18.6635 14.8489 18.3105 14.4892 18.1618C14.1295 18.0131 13.7163 18.0982 13.4433 18.3772C13.1703 18.6562 13.0915 19.0739 13.244 19.4344Z" fill="black"/>
<path d="M22.0154 10.0572H11.5131C10.9694 10.0572 10.5285 10.5015 10.5285 11.0496C10.5285 11.5978 10.9694 12.0421 11.5131 12.0421H22.0154C22.5592 12.0421 23 11.5978 23 11.0496C23 10.5015 22.5592 10.0572 22.0154 10.0572Z" fill="black"/>
</svg>
