<svg width="27" height="26" viewBox="0 0 27 26" fill="none" xmlns="http://www.w3.org/2000/svg">
<path fill-rule="evenodd" clip-rule="evenodd" d="M17.1805 1.16145L24.6837 6.50417C26.1297 7.51302 26.9901 9.1261 27 10.8468V20.5185C26.9071 23.6198 24.2349 26.0673 21.0174 25.9982H5.99684C2.77379 26.075 0.0929212 23.6253 0 20.5185V10.8468C0.00988997 9.1261 0.87028 7.51302 2.31632 6.50417L9.81947 1.16145C12.0102 -0.387151 14.9898 -0.387151 17.1805 1.16145ZM7.10528 20.2034H19.8948C20.4834 20.2034 20.9605 19.7434 20.9605 19.176C20.9605 18.6086 20.4834 18.1485 19.8948 18.1485H7.10528C6.51666 18.1485 6.03949 18.6086 6.03949 19.176C6.03949 19.7434 6.51666 20.2034 7.10528 20.2034Z" fill="#BB8BEB"/>
</svg>
