<svg width="27" height="26" viewBox="0 0 27 26" fill="none" xmlns="http://www.w3.org/2000/svg">
<rect width="27" height="26" fill="#1E1E1E"/>
<path id="Icon" fill-rule="evenodd" clip-rule="evenodd" d="M24.6915 6.50008L17.1855 1.15753C14.9899 -0.385843 12.0101 -0.385843 9.8145 1.15753L2.322 6.50008C0.871347 7.50637 0.00823953 9.12019 0 10.8417V20.4999C0.0810331 23.6109 2.76297 26.0711 5.994 25.9984H21.006C24.237 26.0711 26.919 23.6109 27 20.4999V10.8287C26.9884 9.11463 26.1315 7.50786 24.6915 6.50008ZM24.975 20.4999C24.8945 22.5342 23.1189 24.1218 21.006 24.0486H5.99399C3.88391 24.1145 2.11277 22.531 2.02499 20.4999V10.8417C2.0322 9.7367 2.58952 8.70209 3.52349 8.05994L11.016 2.73039C12.4957 1.68993 14.5043 1.68993 15.984 2.73039L23.4765 8.07294C24.4097 8.70394 24.968 9.73076 24.975 10.8287V20.4999ZM7.08 18H20.04C20.6365 18 21.12 18.4393 21.12 18.9811C21.12 19.523 20.6365 19.9623 20.04 19.9623H7.08C6.48353 19.9623 6 19.523 6 18.9811C6 18.4393 6.48353 18 7.08 18Z" fill="#BB8BEB"/>
</svg>
