<svg width="32" height="32" viewBox="0 0 32 32" fill="none" xmlns="http://www.w3.org/2000/svg">
<path fill-rule="evenodd" clip-rule="evenodd" d="M15.9998 2.66708C11.5545 2.63569 7.86206 6.08872 7.59582 10.5262C7.32957 14.9636 10.5827 18.8334 14.9998 19.3337V25.0671C14.9998 25.6194 15.4476 26.0671 15.9998 26.0671C16.5521 26.0671 16.9998 25.6194 16.9998 25.0671V19.3337C21.417 18.8334 24.6701 14.9636 24.4039 10.5262C24.1376 6.08872 20.4452 2.63569 15.9998 2.66708ZM15.1332 7.29375C13.5993 7.29373 12.3538 8.53326 12.3465 10.0671C12.3465 10.6194 11.8988 11.0671 11.3465 11.0671C10.7942 11.0671 10.3465 10.6194 10.3465 10.0671C10.3539 7.42869 12.4948 5.29374 15.1332 5.29375C15.6855 5.29375 16.1332 5.74146 16.1332 6.29375C16.1332 6.84603 15.6855 7.29375 15.1332 7.29375Z" fill="#DF605B"/>
<path d="M21.0932 21.0537C21.3475 20.573 21.936 20.3789 22.4265 20.6137C24.0637 21.2443 25.1939 22.7582 25.3332 24.5071C25.3332 27.4537 21.3332 29.6804 15.9998 29.6804C10.6665 29.6804 6.6665 27.4537 6.6665 24.5071C6.83016 22.7831 7.95626 21.3006 9.57317 20.6804C10.0665 20.43 10.6695 20.627 10.9198 21.1204C11.1702 21.6138 10.9732 22.2167 10.4798 22.4671C9.3065 23.0671 8.63984 23.8137 8.63984 24.5071C8.63984 25.9471 11.7998 27.6004 16.0132 27.6004C20.2265 27.6004 23.3732 25.9337 23.3732 24.4271C23.3732 23.7204 22.7065 22.9871 21.5332 22.3871C21.0467 22.1376 20.8507 21.5437 21.0932 21.0537Z" fill="#DF605B"/>
</svg>
