<svg width="23" height="23" viewBox="0 0 23 23" fill="none" xmlns="http://www.w3.org/2000/svg">
<path fill-rule="evenodd" clip-rule="evenodd" d="M1.29907 6.60243C3.04403 2.61414 7.13255 0.0116895 11.6714 0.000150059C16.5632 -0.0243696 20.9129 2.95812 22.4378 7.38244C23.9627 11.8068 22.3144 16.6622 18.358 19.4007C14.4015 22.1391 9.04078 22.135 5.08897 19.3905L1.56528 22.7446C1.20701 23.0851 0.626627 23.0851 0.268363 22.7446C-0.0894545 22.4035 -0.0894545 21.8511 0.268363 21.5101L3.68194 18.2609C0.493369 15.1862 -0.445898 10.5907 1.29907 6.60243ZM2.93508 14.172C4.40019 17.5326 7.84887 19.7213 11.6714 19.7166V19.67C16.8594 19.6638 21.071 15.6757 21.1046 10.7377C21.1096 7.09917 18.8101 3.81656 15.2795 2.42199C11.7488 1.02743 7.6832 1.79589 4.98025 4.36869C2.2773 6.94148 1.46996 10.8113 2.93508 14.172Z" fill="black"/>
</svg>
