<svg width="28" height="27" viewBox="0 0 28 27" fill="none" xmlns="http://www.w3.org/2000/svg">
<path fill-rule="evenodd" clip-rule="evenodd" d="M21.4155 0.666672H6.58883C3.22736 0.782652 0.586399 3.58421 0.66883 6.94667V25.2533C0.634409 25.8684 0.984623 26.4405 1.54808 26.6896C2.11153 26.9387 2.77037 26.8128 3.20216 26.3733L6.36216 23C6.96423 22.3685 7.79636 22.0078 8.66883 22H21.3622C23.0009 21.9584 24.5549 21.2625 25.6771 20.0675C26.7994 18.8726 27.3966 17.2782 27.3355 15.64V6.94667C27.4179 3.58421 24.777 0.782652 21.4155 0.666672ZM9.00216 7.62667H15.6688C16.2211 7.62667 16.6688 8.07439 16.6688 8.62667C16.6688 9.17896 16.2211 9.62667 15.6688 9.62667H9.00216C8.44987 9.62667 8.00216 9.17896 8.00216 8.62667C8.00216 8.07439 8.44987 7.62667 9.00216 7.62667ZM9.00216 14.96H19.0022C19.5544 14.96 20.0022 14.5123 20.0022 13.96C20.0022 13.4077 19.5544 12.96 19.0022 12.96H9.00216C8.44987 12.96 8.00216 13.4077 8.00216 13.96C8.00216 14.5123 8.44987 14.96 9.00216 14.96Z" fill="#DF605B"/>
</svg>
