<svg width="19" height="26" viewBox="0 0 19 26" fill="none" xmlns="http://www.w3.org/2000/svg">
<path d="M9.56768 0L7.70852 3.76492C6.38002 6.45461 4.59951 8.90083 2.44314 10.9989L2.19887 11.2275C0.813945 12.5597 0.0226449 14.3843 0.000441423 16.2967V16.5387C-0.0362396 20.2837 2.21598 23.6788 5.70007 25.1308L6.05291 25.2787C8.33801 26.2404 10.9195 26.2404 13.2046 25.2787H13.286C16.7962 23.7676 19.0483 20.317 18.9992 16.5253V10.6897C17.8295 13.3366 15.7051 15.4558 13.0417 16.6329C13.0417 16.6329 13.0417 16.6329 12.9603 16.6329C12.8789 16.6329 11.929 17.0228 11.5218 16.6329C11.1582 16.2683 11.1234 15.6933 11.4404 15.2882L11.5354 15.221H11.6033C14.7187 12.8746 15.4451 8.52716 13.2589 5.31122C11.4947 2.64889 9.56768 0 9.56768 0Z" fill="#BB8BEB"/>
</svg>
