<svg width="19" height="26" viewBox="0 0 19 26" fill="none" xmlns="http://www.w3.org/2000/svg">
<path fill-rule="evenodd" clip-rule="evenodd" d="M12.9651 16.6678H13.0464C15.7109 15.4983 17.836 13.3755 19 10.7208V16.6003C19.0108 20.3689 16.7664 23.7828 13.2905 25.2848H13.1956C12.0463 25.7687 10.8091 26.012 9.56109 25.9995C8.35478 26.0028 7.16018 25.7643 6.04863 25.2983L5.69603 25.15C2.22769 23.7071 -0.0218043 20.3252 0.000159401 16.5868V16.3441C0.0261801 14.4297 0.810798 12.6027 2.18358 11.2602L2.42769 11.0309C4.58567 8.92931 6.3654 6.47542 7.68959 3.77587L9.54753 0C9.54753 0 11.4733 2.69705 13.2634 5.3941C15.4466 8.61517 14.7205 12.9709 11.6089 15.3192H11.4462C11.1231 15.7235 11.1582 16.3048 11.5275 16.6678C11.682 16.7975 11.8821 16.8606 12.0835 16.8431C12.3848 16.8305 12.6822 16.7714 12.9651 16.6678ZM12.3684 23.4104H12.4633V23.3969C15.1749 22.2151 16.9335 19.5577 16.9522 16.6138C16.0376 17.4142 14.9917 18.0528 13.8601 18.5018L13.6838 18.5692C13.1733 18.7668 12.6313 18.8719 12.0836 18.8793C11.3412 18.9054 10.6206 18.6275 10.09 18.1107C8.98205 17.0218 8.87682 15.2779 9.84589 14.0651C9.96421 13.9181 10.1009 13.7866 10.2527 13.674H10.3477C12.6345 11.9778 13.1724 8.79181 11.5682 6.44595C10.9851 5.58289 10.4019 4.71983 9.85946 3.95118L9.52042 4.65241C8.08509 7.52906 6.16817 10.142 3.85167 12.3795L3.60756 12.6087C2.62255 13.5753 2.05778 14.8873 2.03441 16.2632V16.5194C1.99767 19.4581 3.7572 22.1252 6.48262 23.262L6.83522 23.4104C8.60322 24.1568 10.6004 24.1568 12.3684 23.4104Z" fill="#BB8BEB"/>
</svg>
