<svg width="41" height="46" viewBox="0 0 41 46" fill="none" xmlns="http://www.w3.org/2000/svg">
<g clip-path="url(#clip0_1270_1359)" filter="url(#filter0_d_1270_1359)">
<g filter="url(#filter1_d_1270_1359)">
<path d="M24.2512 11.6667L22.3308 15.4C20.9586 18.0671 19.1195 20.4928 16.8922 22.5734L16.6399 22.8C15.2094 24.121 14.392 25.9303 14.3691 27.8267V28.0667C14.3312 31.7802 16.6575 35.1469 20.2563 36.5867L20.6207 36.7334C22.981 37.687 25.6475 37.687 28.0077 36.7334H28.0918C31.7175 35.2349 34.0437 31.8133 33.993 28.0534V22.2667C32.7848 24.8914 30.5905 26.9929 27.8395 28.16C27.8395 28.16 27.8395 28.16 27.7554 28.16C27.6713 28.16 26.6901 28.5467 26.2696 28.16C25.894 27.7985 25.8581 27.2283 26.1855 26.8267L26.2836 26.76H26.3537C29.5717 24.4333 30.3219 20.1223 28.0638 16.9334C26.2416 14.2934 24.2512 11.6667 24.2512 11.6667Z" fill="#DF605B"/>
</g>
</g>
<line x1="1.5" x2="1.5" y2="30" stroke="#00676C" stroke-width="3"/>
<line y1="1.5" x2="31.5385" y2="1.5" stroke="#00676C" stroke-width="3"/>
<defs>
<filter id="filter0_d_1270_1359" x="3.35889" y="9" width="41.6411" height="40" filterUnits="userSpaceOnUse" color-interpolation-filters="sRGB">
<feFlood flood-opacity="0" result="BackgroundImageFix"/>
<feColorMatrix in="SourceAlpha" type="matrix" values="0 0 0 0 0 0 0 0 0 0 0 0 0 0 0 0 0 0 127 0" result="hardAlpha"/>
<feOffset dy="4"/>
<feGaussianBlur stdDeviation="2"/>
<feComposite in2="hardAlpha" operator="out"/>
<feColorMatrix type="matrix" values="0 0 0 0 0 0 0 0 0 0 0 0 0 0 0 0 0 0 0.25 0"/>
<feBlend mode="normal" in2="BackgroundImageFix" result="effect1_dropShadow_1270_1359"/>
<feBlend mode="normal" in="SourceGraphic" in2="effect1_dropShadow_1270_1359" result="shape"/>
</filter>
<filter id="filter1_d_1270_1359" x="10.3687" y="11.6667" width="27.625" height="33.7819" filterUnits="userSpaceOnUse" color-interpolation-filters="sRGB">
<feFlood flood-opacity="0" result="BackgroundImageFix"/>
<feColorMatrix in="SourceAlpha" type="matrix" values="0 0 0 0 0 0 0 0 0 0 0 0 0 0 0 0 0 0 127 0" result="hardAlpha"/>
<feOffset dy="4"/>
<feGaussianBlur stdDeviation="2"/>
<feComposite in2="hardAlpha" operator="out"/>
<feColorMatrix type="matrix" values="0 0 0 0 0 0 0 0 0 0 0 0 0 0 0 0 0 0 0.25 0"/>
<feBlend mode="normal" in2="BackgroundImageFix" result="effect1_dropShadow_1270_1359"/>
<feBlend mode="normal" in="SourceGraphic" in2="effect1_dropShadow_1270_1359" result="shape"/>
</filter>
<clipPath id="clip0_1270_1359">
<rect width="33.641" height="32" fill="white" transform="translate(7.35889 9)"/>
</clipPath>
</defs>
</svg>
