<svg width="32" height="32" viewBox="0 0 32 32" fill="none" xmlns="http://www.w3.org/2000/svg">
<path fill-rule="evenodd" clip-rule="evenodd" d="M7.99984 2.66667H23.9998C26.9454 2.66667 29.3332 5.05449 29.3332 8.00001V24C29.3332 26.9455 26.9454 29.3333 23.9998 29.3333H7.99984C5.05432 29.3333 2.6665 26.9455 2.6665 24V8.00001C2.6665 5.05449 5.05432 2.66667 7.99984 2.66667ZM16.9998 17H21.3332C21.8855 17 22.3332 16.5523 22.3332 16C22.3332 15.4477 21.8855 15 21.3332 15H16.9998V10.6667C16.9998 10.1144 16.5521 9.66667 15.9998 9.66667C15.4476 9.66667 14.9998 10.1144 14.9998 10.6667V15H10.6665C10.1142 15 9.6665 15.4477 9.6665 16C9.6665 16.5523 10.1142 17 10.6665 17H14.9998V21.3333C14.9998 21.8856 15.4476 22.3333 15.9998 22.3333C16.5521 22.3333 16.9998 21.8856 16.9998 21.3333V17Z" fill="#DF605B"/>
</svg>
