<svg width="27" height="26" viewBox="0 0 27 26" fill="none" xmlns="http://www.w3.org/2000/svg">
<path fill-rule="evenodd" clip-rule="evenodd" d="M10.3533 2.24536C10.7719 0.895953 12.0317 -0.0178151 13.4487 0.000263509C14.8737 -0.0140049 16.1361 0.913439 16.5441 2.27433L17.5032 5.17122C17.9339 6.51194 19.1862 7.42023 20.5986 7.41631H23.6213C25.0669 7.36171 26.3752 8.26458 26.8327 9.6325C27.2902 11.0004 26.787 12.5051 25.5976 13.326L23.1126 15.1365C21.9672 15.9566 21.4854 17.4208 21.921 18.7577L22.8801 21.6545C23.2097 22.6574 23.0317 23.7572 22.4025 24.6059C21.7732 25.4546 20.7707 25.9471 19.7121 25.9275C19.0256 25.9223 18.3588 25.699 17.8084 25.2901L15.4251 23.4796C14.2821 22.6487 12.7315 22.6487 11.5886 23.4796L9.08902 25.2901C8.53203 25.7369 7.84196 25.9865 7.12717 25.9999C6.06091 26.0087 5.05731 25.4988 4.43808 24.6336C3.81886 23.7684 3.6618 22.6565 4.01727 21.6545L4.9764 18.7577C5.4385 17.4248 4.97964 15.9472 3.84289 15.1076L1.35787 13.297C0.206004 12.4733 -0.27859 11.0013 0.159736 9.65759C0.598063 8.31383 1.85851 7.40734 3.27613 7.41631H6.29883C7.71911 7.41625 8.97385 6.49444 9.3942 5.14225L10.3533 2.24536ZM14.2189 2.99855C14.1295 2.6517 13.8075 2.41551 13.4487 2.43365C13.0721 2.4208 12.7435 2.6865 12.6785 3.05649L11.7194 5.95338C10.9571 8.29452 8.76829 9.87956 6.29883 9.87867H3.218C2.87556 9.8885 2.57596 10.111 2.46861 10.4353C2.36125 10.7595 2.46912 11.1161 2.73844 11.3271L5.22345 13.1377C7.22786 14.5827 8.06751 17.1519 7.30156 19.4964L6.34243 22.3933C6.24823 22.6311 6.2869 22.9009 6.44416 23.103C6.60724 23.337 6.87064 23.4817 7.15624 23.4941C7.33065 23.4889 7.49878 23.4279 7.6358 23.3203L10.0917 21.5097C12.0934 20.0602 14.8039 20.0602 16.8056 21.5097L19.2325 23.2334C19.3695 23.341 19.5377 23.402 19.7121 23.4072C19.9847 23.3895 20.2352 23.2514 20.3951 23.0306C20.5524 22.8285 20.591 22.5587 20.4968 22.3208L19.5377 19.4239C18.7717 17.0795 19.6114 14.5103 21.6158 13.0653L24.1008 11.2692C24.3701 11.0581 24.478 10.7016 24.3707 10.3773C24.2633 10.0531 23.9637 9.83056 23.6213 9.82073H20.5986C18.1291 9.82163 15.9403 8.23659 15.178 5.89544L14.2189 2.99855Z" fill="#BB8BEB"/>
</svg>
