<svg width="27" height="26" viewBox="0 0 27 26" fill="none" xmlns="http://www.w3.org/2000/svg">
<path d="M16.6383 2.2335L17.5982 5.14027C18.0319 6.48565 19.2816 7.40027 20.6961 7.40755H23.7212C25.14 7.39855 26.4015 8.30813 26.8401 9.65647C27.2788 11.0048 26.7938 12.4818 25.641 13.3083L23.154 15.1105C22.0091 15.941 21.528 17.4127 21.9614 18.7585L22.9213 21.6653C23.3961 23.0157 22.9326 24.5175 21.7791 25.3661C20.6257 26.2147 19.053 26.2109 17.9036 25.3569L15.4602 23.5401C14.3148 22.711 12.766 22.711 11.6206 23.5401L9.17718 25.3569C8.03423 26.1928 6.48173 26.195 5.33639 25.3624C4.19105 24.5297 3.71533 23.0529 4.15949 21.7089L5.11939 18.8021C5.55275 17.4563 5.07163 15.9846 3.92678 15.1541L1.38158 13.3228C0.2054 12.4946 -0.287818 10.9935 0.168189 9.62978C0.624196 8.26606 1.92143 7.36277 3.35957 7.40755H6.38473C7.79142 7.4044 9.03872 6.50323 9.4826 5.16934L10.4425 2.26257C10.8728 0.919938 12.119 0.00665496 13.5298 3.62011e-05C14.9406 -0.00658256 16.1953 0.894967 16.6383 2.2335Z" fill="#BB8BEB"/>
</svg>
