<svg width="32" height="32" viewBox="0 0 32 32" fill="none" xmlns="http://www.w3.org/2000/svg">
<path d="M18.3465 15.7467C18.3465 17.19 17.1765 18.36 15.7332 18.36C14.2899 18.36 13.1198 17.19 13.1198 15.7467C13.1198 14.3034 14.2899 13.1334 15.7332 13.1334C17.1765 13.1334 18.3465 14.3034 18.3465 15.7467Z" fill="#DF605B"/>
<path fill-rule="evenodd" clip-rule="evenodd" d="M25.6351 11.6411C25.8891 12.2599 26.4909 12.6647 27.1598 12.6667C27.5983 12.6667 28.0189 12.8409 28.3289 13.1509C28.639 13.461 28.8132 13.8815 28.8132 14.32V17.1734C28.8132 18.0865 28.073 18.8267 27.1598 18.8267C26.4909 18.8286 25.8891 19.2335 25.6351 19.8523C25.3811 20.4712 25.5251 21.1821 25.9998 21.6534C26.6367 22.306 26.6367 23.3474 25.9998 24L23.9998 26C23.3472 26.6369 22.3058 26.6369 21.6532 26C21.1819 25.5253 20.471 25.3813 19.8521 25.6353C19.2333 25.8892 18.8285 26.4911 18.8265 27.16C18.8265 28.0731 18.0863 28.8134 17.1732 28.8134H14.3198C13.4067 28.8134 12.6665 28.0731 12.6665 27.16C12.6646 26.4911 12.2597 25.8892 11.6409 25.6353C11.022 25.3813 10.3111 25.5253 9.83984 26C9.18724 26.6369 8.14577 26.6369 7.49317 26L5.49317 24C4.85633 23.3474 4.85633 22.306 5.49317 21.6534C5.96963 21.1804 6.11277 20.4662 5.85538 19.8461C5.59799 19.2261 4.9912 18.8232 4.31984 18.8267C3.40673 18.8267 2.6665 18.0865 2.6665 17.1734V14.32C2.6665 13.4069 3.40673 12.6667 4.31984 12.6667C4.98877 12.6647 5.59061 12.2599 5.84457 11.6411C6.09854 11.0222 5.95457 10.3113 5.47984 9.84002C4.84299 9.18742 4.84299 8.14596 5.47984 7.49335L7.47984 5.49335C8.13244 4.85651 9.1739 4.85651 9.8265 5.49335C10.2995 5.96982 11.0136 6.11295 11.6337 5.85556C12.2538 5.59818 12.6566 4.99138 12.6532 4.32002C12.6532 3.40691 13.3934 2.66669 14.3065 2.66669H17.1732C17.6117 2.66669 18.0322 2.84088 18.3423 3.15094C18.6523 3.461 18.8265 3.88153 18.8265 4.32002C18.823 4.99138 19.2259 5.59818 19.846 5.85556C20.466 6.11295 21.1802 5.96982 21.6532 5.49335C22.3058 4.85651 23.3472 4.85651 23.9998 5.49335L25.9998 7.49335C26.6367 8.14596 26.6367 9.18742 25.9998 9.84002C25.5251 10.3113 25.3811 11.0222 25.6351 11.6411ZM11.1198 15.7467C11.1198 18.2946 13.1853 20.36 15.7332 20.36C18.281 20.36 20.3465 18.2946 20.3465 15.7467C20.3465 13.1988 18.281 11.1334 15.7332 11.1334C13.1853 11.1334 11.1198 13.1988 11.1198 15.7467Z" fill="#DF605B"/>
</svg>
