<svg width="24" height="24" viewBox="0 0 24 24" fill="none" xmlns="http://www.w3.org/2000/svg">
<path d="M14.7896 2.06169L15.6428 4.74486C16.0284 5.98676 17.1392 6.83101 18.3965 6.83774H21.0855C22.3467 6.82943 23.468 7.66905 23.8579 8.91366C24.2478 10.1583 23.8167 11.5217 22.792 12.2846L20.5813 13.9482C19.5637 14.7148 19.136 16.0733 19.5212 17.3155L20.3745 19.9987C20.7965 21.2452 20.3845 22.6316 19.3592 23.4149C18.334 24.1982 16.936 24.1947 15.9143 23.4063L13.7424 21.7294C12.7243 20.964 11.3475 20.964 10.3294 21.7294L8.15749 23.4063C7.14154 24.178 5.76153 24.18 4.74346 23.4114C3.72538 22.6428 3.30252 21.2796 3.69732 20.039L4.55057 17.3558C4.93578 16.1135 4.50811 14.7551 3.49047 13.9884L1.22807 12.298C0.182578 11.5335 -0.255838 10.1478 0.149501 8.88902C0.554841 7.63021 1.70793 6.79641 2.98628 6.83774H5.67531C6.92571 6.83483 8.03441 6.00298 8.42898 4.7717L9.28223 2.08852C9.66474 0.849174 10.7725 0.00614304 12.0265 3.34164e-05C13.2805 -0.0060762 14.3959 0.826124 14.7896 2.06169Z" fill="#F4B32D"/>
</svg>
