<svg width="30" height="30" viewBox="0 0 30 30" fill="none" xmlns="http://www.w3.org/2000/svg">
<g filter="url(#filter0_d_1225_1318)">
<path fill-rule="evenodd" clip-rule="evenodd" d="M15.8878 0.597613L25.428 10.1378C26.3241 11.2747 26.1486 12.9189 25.0329 13.841L17.841 21.0329C16.9189 22.1486 15.2747 22.3241 14.1378 21.428L4.59761 11.8878C4.1633 11.4412 3.94843 10.8255 4.01052 10.2056L4.50729 3.43145C4.66524 1.88662 5.88662 0.665236 7.43145 0.507291L14.2056 0.0105224C14.8255 -0.0515681 15.4412 0.163299 15.8878 0.597613ZM10.4121 8.02544C10.8389 8.02544 11.247 7.85036 11.5411 7.54109C11.8504 7.24697 12.0254 6.83886 12.0254 6.41207C12.0254 5.98527 11.8504 5.57717 11.5411 5.28305C10.9176 4.65951 9.90659 4.65951 9.28305 5.28305C8.65951 5.90659 8.65951 6.91755 9.28305 7.54109C9.57717 7.85036 9.98528 8.02544 10.4121 8.02544Z" fill="#DF605B"/>
</g>
<defs>
<filter id="filter0_d_1225_1318" x="0" y="0" width="30" height="30" filterUnits="userSpaceOnUse" color-interpolation-filters="sRGB">
<feFlood flood-opacity="0" result="BackgroundImageFix"/>
<feColorMatrix in="SourceAlpha" type="matrix" values="0 0 0 0 0 0 0 0 0 0 0 0 0 0 0 0 0 0 127 0" result="hardAlpha"/>
<feOffset dy="4"/>
<feGaussianBlur stdDeviation="2"/>
<feComposite in2="hardAlpha" operator="out"/>
<feColorMatrix type="matrix" values="0 0 0 0 0 0 0 0 0 0 0 0 0 0 0 0 0 0 0.25 0"/>
<feBlend mode="normal" in2="BackgroundImageFix" result="effect1_dropShadow_1225_1318"/>
<feBlend mode="normal" in="SourceGraphic" in2="effect1_dropShadow_1225_1318" result="shape"/>
</filter>
</defs>
</svg>
