<svg width="32" height="32" viewBox="0 0 32 32" fill="none" xmlns="http://www.w3.org/2000/svg">
<path fill-rule="evenodd" clip-rule="evenodd" d="M25.3331 7.6933H14.9065V7.7733C14.8774 6.13731 13.5427 4.82638 11.9065 4.82664H9.3998C7.78092 4.81862 6.45038 6.10185 6.3998 7.71997C4.96579 7.84075 3.84878 9.01505 3.7998 10.4533V21.5466C3.84878 22.9849 4.96579 24.1592 6.3998 24.28C6.45038 25.8981 7.78092 27.1813 9.3998 27.1733H11.9065C13.5427 27.1736 14.8774 25.8626 14.9065 24.2266V24.3066H25.3331C26.9041 24.344 28.2095 23.1041 28.2531 21.5333V10.4533C28.2322 9.69999 27.9127 8.98588 27.3651 8.46821C26.8174 7.95055 26.0864 7.67178 25.3331 7.6933ZM12.9065 24.1733C12.9065 24.7256 12.4588 25.1733 11.9065 25.1733H9.3998C9.13349 25.1769 8.87703 25.0727 8.6887 24.8844C8.50037 24.6961 8.39618 24.4396 8.3998 24.1733V7.82664C8.39618 7.56033 8.50037 7.30386 8.6887 7.11553C8.87703 6.92721 9.13349 6.82301 9.3998 6.82664H11.9065C12.4588 6.82664 12.9065 7.27435 12.9065 7.82664V24.1733ZM16.4602 20.51C16.608 20.86 16.9533 21.0854 17.3331 21.08C17.5771 21.08 17.8111 20.983 17.9837 20.8105C18.1562 20.638 18.2531 20.404 18.2531 20.16C18.2585 19.7801 18.0331 19.4349 17.6832 19.287C17.3332 19.1391 16.9286 19.2181 16.6599 19.4868C16.3913 19.7554 16.3123 20.1601 16.4602 20.51ZM17.3331 16.92C16.825 16.92 16.4131 16.5081 16.4131 16C16.4131 15.4919 16.825 15.08 17.3331 15.08C17.8412 15.08 18.2531 15.4919 18.2531 16C18.2531 16.5081 17.8412 16.92 17.3331 16.92ZM20.0202 20.51C20.168 20.86 20.5133 21.0854 20.8931 21.08C21.4012 21.08 21.8131 20.6681 21.8131 20.16C21.8185 19.7801 21.5931 19.4349 21.2432 19.287C20.8932 19.1391 20.4886 19.2181 20.2199 19.4868C19.9513 19.7554 19.8723 20.1601 20.0202 20.51ZM20.8931 16.92C20.385 16.92 19.9731 16.5081 19.9731 16C19.9731 15.4919 20.385 15.08 20.8931 15.08C21.4012 15.08 21.8131 15.4919 21.8131 16C21.8131 16.5081 21.4012 16.92 20.8931 16.92ZM23.5668 20.51C23.7147 20.86 24.0599 21.0854 24.4398 21.08C24.9479 21.08 25.3598 20.6681 25.3598 20.16C25.3652 19.7801 25.1398 19.4349 24.7898 19.287C24.4399 19.1391 24.0352 19.2181 23.7666 19.4868C23.498 19.7554 23.419 20.1601 23.5668 20.51ZM24.4398 16.92C24.0655 16.9308 23.7219 16.7137 23.5711 16.3709C23.4202 16.0281 23.4922 15.6281 23.7531 15.3595C24.014 15.0908 24.4117 15.0071 24.7588 15.1477C25.1058 15.2884 25.333 15.6255 25.3331 16C25.3333 16.4978 24.9375 16.9055 24.4398 16.92ZM16.6531 12.84H25.1198C25.6721 12.84 26.1198 12.3923 26.1198 11.84C26.1198 11.2877 25.6721 10.84 25.1198 10.84H16.6531C16.1009 10.84 15.6531 11.2877 15.6531 11.84C15.6531 12.3923 16.1009 12.84 16.6531 12.84Z" fill="#DF605B"/>
</svg>
